# xmcd
#
# Track frame offsets: 
#        150
#        9394
#        27442
#        47826
#        61513
#        74961
#        90099
#        102766
#        123356
#        133338
#        146152
#        164568
#        192563
#
# Disc length: 2757 seconds
#
# Revision: 1
# Processed by: cddbd v1.5.2PL0 Copyright (c) Steve Scherf et al.
# Submitted via: ExactAudioCopy v0.99pb4
#
DISCID=bb0ac30d
DTITLE=Guillaume de Chassy and Daniel Yvinec - Wonderful World
DYEAR=2006
DGENRE=Jazz
TTITLE0=Opening Theme
TTITLE1=What A Wonderful World
TTITLE2=Here's That Rainy Day - Her's That Sunny Day
TTITLE3=The White Cliffs Of Dover
TTITLE4=It Could Happen To You - It Happened To Us
TTITLE5=Blue Evening
TTITLE6=I Had The Craziest Dream
TTITLE7=When You're Smiling
TTITLE8=The Next Time I Love 
TTITLE9=We Love That Thing
TTITLE10=Then I'll Be Tired Of You
TTITLE11=As Time Goes By - Time Gone By
TTITLE12=Looking For Laura - Closing Theme
EXTD=YEAR: 2005
EXTT0=
EXTT1=
EXTT2=
EXTT3=
EXTT4=
EXTT5=
EXTT6=
EXTT7=
EXTT8=
EXTT9=
EXTT10=
EXTT11=
EXTT12=
PLAYORDER=
